REM MD5 21436338215d6951de9d3a798a2917dc
FILE "Ugetsu Kitan (Japan).bin" BINARY
  TRACK 01 MODE2/2352
    INDEX 01 00:00:00
  TRACK 02 AUDIO
    INDEX 00 47:25:57
    INDEX 01 47:27:57
  TRACK 03 AUDIO
    INDEX 00 48:28:58
    INDEX 01 48:30:58
  TRACK 04 AUDIO
    INDEX 00 51:00:41
    INDEX 01 51:02:41
REM LEADOUT 56:35:26
